<svg width="9" height="18" viewBox="0 0 9 18" fill="none" xmlns="http://www.w3.org/2000/svg">
<path d="M6.10724 7.86249C6.22441 7.97869 6.3174 8.11694 6.38086 8.26927C6.44432 8.42159 6.47699 8.58497 6.47699 8.74999C6.47699 8.915 6.44432 9.07838 6.38086 9.23071C6.3174 9.38303 6.22441 9.52128 6.10724 9.63749L0.369746 15.3625C0.252585 15.4787 0.159591 15.6169 0.0961306 15.7693C0.0326697 15.9216 -2.17099e-06 16.085 -2.15657e-06 16.25C-2.14214e-06 16.415 0.0326698 16.5784 0.0961306 16.7307C0.159592 16.883 0.252585 17.0213 0.369746 17.1375C0.603949 17.3703 0.920764 17.501 1.251 17.501C1.58123 17.501 1.89804 17.3703 2.13225 17.1375L7.86975 11.4C8.572 10.6969 8.96645 9.74374 8.96645 8.74999C8.96645 7.75623 8.572 6.80311 7.86975 6.09999L2.13224 0.362488C1.89942 0.131557 1.58517 0.00136736 1.25724 -1.33927e-05C1.09274 -0.000964495 0.929657 0.0305662 0.77736 0.092772C0.625063 0.154978 0.486544 0.246636 0.369744 0.362488C0.252584 0.478692 0.15959 0.616942 0.0961293 0.769266C0.0326684 0.92159 -3.48233e-06 1.08497 -3.46791e-06 1.24999C-3.45348e-06 1.415 0.0326685 1.57838 0.0961293 1.73071C0.15959 1.88303 0.252584 2.02128 0.369745 2.13749L6.10724 7.86249Z" fill="#4CAF50"/>
</svg>
